<mxfile host="app.diagrams.net" modified="2023-06-11T16:56:46.531Z" agent="Mozilla/5.0 (Windows NT 10.0; Win64; x64) AppleWebKit/537.36 (KHTML, like Gecko) Chrome/114.0.0.0 Safari/537.36" etag="2DEw43aN6BAyjCmeg-uH" version="21.3.7" type="device">
  <diagram name="Page-1" id="2U3nqe6bLGhKJr4LcgtS">
    <mxGraphModel dx="375" dy="675" grid="1" gridSize="10" guides="1" tooltips="1" connect="1" arrows="1" fold="1" page="1" pageScale="1" pageWidth="850" pageHeight="1100" math="0" shadow="0">
      <root>
        <mxCell id="0" />
        <mxCell id="1" parent="0" />
        <mxCell id="8vgbERpLd-UUOHgOjw12-1" value="Reset" style="ellipse;whiteSpace=wrap;html=1;aspect=fixed;" vertex="1" parent="1">
          <mxGeometry x="370" y="20" width="80" height="80" as="geometry" />
        </mxCell>
        <mxCell id="8vgbERpLd-UUOHgOjw12-2" value="" style="endArrow=classic;html=1;rounded=0;exitX=0.5;exitY=1;exitDx=0;exitDy=0;" edge="1" parent="1" source="8vgbERpLd-UUOHgOjw12-1" target="8vgbERpLd-UUOHgOjw12-5">
          <mxGeometry width="50" height="50" relative="1" as="geometry">
            <mxPoint x="400" y="280" as="sourcePoint" />
            <mxPoint x="410" y="130" as="targetPoint" />
          </mxGeometry>
        </mxCell>
        <mxCell id="8vgbERpLd-UUOHgOjw12-6" value="starting requesting" style="edgeStyle=orthogonalEdgeStyle;rounded=0;orthogonalLoop=1;jettySize=auto;html=1;exitX=0.5;exitY=1;exitDx=0;exitDy=0;" edge="1" parent="1" source="8vgbERpLd-UUOHgOjw12-5" target="8vgbERpLd-UUOHgOjw12-7">
          <mxGeometry relative="1" as="geometry">
            <mxPoint x="410.47619047619037" y="260" as="targetPoint" />
          </mxGeometry>
        </mxCell>
        <mxCell id="8vgbERpLd-UUOHgOjw12-5" value="Detect Motion movement" style="ellipse;whiteSpace=wrap;html=1;" vertex="1" parent="1">
          <mxGeometry x="350" y="130" width="120" height="80" as="geometry" />
        </mxCell>
        <mxCell id="8vgbERpLd-UUOHgOjw12-8" value="data reicived" style="edgeStyle=orthogonalEdgeStyle;rounded=0;orthogonalLoop=1;jettySize=auto;html=1;exitX=0.5;exitY=1;exitDx=0;exitDy=0;" edge="1" parent="1" source="8vgbERpLd-UUOHgOjw12-7" target="8vgbERpLd-UUOHgOjw12-9">
          <mxGeometry relative="1" as="geometry">
            <mxPoint x="409.5238095238094" y="400" as="targetPoint" />
          </mxGeometry>
        </mxCell>
        <mxCell id="8vgbERpLd-UUOHgOjw12-7" value="Recieving surrounding affection" style="ellipse;whiteSpace=wrap;html=1;" vertex="1" parent="1">
          <mxGeometry x="349.99619047619035" y="260" width="120" height="80" as="geometry" />
        </mxCell>
        <mxCell id="8vgbERpLd-UUOHgOjw12-10" value="display" style="edgeStyle=orthogonalEdgeStyle;rounded=0;orthogonalLoop=1;jettySize=auto;html=1;exitX=0.5;exitY=1;exitDx=0;exitDy=0;" edge="1" parent="1" source="8vgbERpLd-UUOHgOjw12-9" target="8vgbERpLd-UUOHgOjw12-11">
          <mxGeometry relative="1" as="geometry">
            <mxPoint x="410.47619047619037" y="510" as="targetPoint" />
          </mxGeometry>
        </mxCell>
        <mxCell id="8vgbERpLd-UUOHgOjw12-9" value="Processing Data" style="ellipse;whiteSpace=wrap;html=1;" vertex="1" parent="1">
          <mxGeometry x="350.0038095238094" y="390" width="120" height="80" as="geometry" />
        </mxCell>
        <mxCell id="8vgbERpLd-UUOHgOjw12-12" style="edgeStyle=orthogonalEdgeStyle;rounded=0;orthogonalLoop=1;jettySize=auto;html=1;exitX=0;exitY=0.5;exitDx=0;exitDy=0;entryX=0;entryY=0.5;entryDx=0;entryDy=0;" edge="1" parent="1" source="8vgbERpLd-UUOHgOjw12-11" target="8vgbERpLd-UUOHgOjw12-1">
          <mxGeometry relative="1" as="geometry">
            <Array as="points">
              <mxPoint x="150" y="580" />
              <mxPoint x="150" y="60" />
            </Array>
          </mxGeometry>
        </mxCell>
        <mxCell id="8vgbERpLd-UUOHgOjw12-13" value="Results Displayed" style="edgeLabel;html=1;align=center;verticalAlign=middle;resizable=0;points=[];" vertex="1" connectable="0" parent="8vgbERpLd-UUOHgOjw12-12">
          <mxGeometry x="0.1132" y="1" relative="1" as="geometry">
            <mxPoint y="-1" as="offset" />
          </mxGeometry>
        </mxCell>
        <mxCell id="8vgbERpLd-UUOHgOjw12-11" value="display on 7-segment" style="ellipse;whiteSpace=wrap;html=1;" vertex="1" parent="1">
          <mxGeometry x="349.99619047619035" y="540" width="120" height="80" as="geometry" />
        </mxCell>
      </root>
    </mxGraphModel>
  </diagram>
</mxfile>
